<?xml version="1.0" encoding="UTF-8"?>
<svg xmlns="http://www.w3.org/2000/svg" viewBox="0 0 1024 1024" role="img" aria-labelledby="title desc">
  <title id="title">Townsend Precision Labs Ltd logo</title>
  <desc id="desc">Faithful vector trace of the original Townsend Precision Labs Ltd logo from the HNC/GlosCol source image.</desc>
  <rect width="100%" height="100%" fill="none"/>
  <path fill="#d62b7f" fill-rule="evenodd" d="M267.00,322.00 L264.00,324.00 L253.00,323.00 L250.00,325.00 L245.00,324.00 L242.00,326.00 L233.00,326.00 L200.00,337.00 L168.00,356.00 L140.00,382.00 L127.00,399.00 L109.00,433.00 L101.00,459.00 L99.00,470.00 L100.00,474.00 L98.00,476.00 L99.00,483.00 L97.00,486.00 L97.00,508.00 L99.00,511.00 L98.00,520.00 L99.00,526.00 L101.00,528.00 L101.00,537.00 L112.00,571.00 L123.00,592.00 L132.00,603.00 L134.00,608.00 L159.00,634.00 L161.00,634.00 L165.00,639.00 L186.00,653.00 L209.00,664.00 L243.00,673.00 L264.00,673.00 L267.00,675.00 L278.00,675.00 L281.00,673.00 L291.00,674.00 L294.00,672.00 L298.00,673.00 L301.00,671.00 L310.00,671.00 L341.00,661.00 L359.00,652.00 L376.00,641.00 L403.00,616.00 L403.00,614.00 L408.00,610.00 L422.00,590.00 L435.00,564.00 L445.00,528.00 L445.00,513.00 L447.00,510.00 L447.00,487.00 L445.00,484.00 L446.00,477.00 L444.00,474.00 L444.00,463.00 L433.00,428.00 L415.00,396.00 L403.00,383.00 L403.00,381.00 L387.00,365.00 L385.00,365.00 L370.00,352.00 L355.00,343.00 L325.00,330.00 L314.00,327.00 L311.00,328.00 L304.00,325.00 L301.00,326.00 L298.00,324.00 L293.00,325.00 L291.00,323.00 L280.00,324.00 L277.00,322.00 Z M255.00,341.00 L289.00,341.00 L292.00,343.00 L316.00,347.00 L333.00,353.00 L351.00,362.00 L372.00,378.00 L374.00,378.00 L391.00,395.00 L391.00,397.00 L400.00,407.00 L409.00,423.00 L413.00,427.00 L413.00,431.00 L424.00,458.00 L426.00,470.00 L428.00,473.00 L427.00,477.00 L429.00,479.00 L428.00,486.00 L430.00,489.00 L430.00,509.00 L428.00,512.00 L428.00,525.00 L416.00,562.00 L403.00,586.00 L398.00,592.00 L396.00,590.00 L396.00,582.00 L394.00,579.00 L394.00,560.00 L379.00,551.00 L369.00,548.00 L351.00,539.00 L341.00,541.00 L302.00,560.00 L302.00,618.00 L327.00,631.00 L336.00,634.00 L341.00,639.00 L336.00,643.00 L320.00,649.00 L291.00,654.00 L288.00,656.00 L284.00,654.00 L284.00,595.00 L263.00,594.00 L261.00,592.00 L261.00,589.00 L263.00,587.00 L284.00,586.00 L283.00,571.00 L263.00,571.00 L261.00,569.00 L261.00,566.00 L263.00,564.00 L281.00,564.00 L284.00,561.00 L281.00,548.00 L263.00,548.00 L261.00,546.00 L261.00,543.00 L267.00,539.00 L276.00,539.00 L281.00,541.00 L283.00,540.00 L282.00,525.00 L264.00,526.00 L261.00,523.00 L261.00,520.00 L263.00,518.00 L282.00,518.00 L283.00,504.00 L281.00,502.00 L263.00,502.00 L261.00,500.00 L261.00,497.00 L263.00,495.00 L276.00,495.00 L282.00,493.00 L282.00,431.00 L284.00,424.00 L292.00,417.00 L310.00,417.00 L314.00,415.00 L318.00,417.00 L337.00,417.00 L341.00,422.00 L341.00,447.00 L339.00,449.00 L315.00,450.00 L314.00,471.00 L317.00,474.00 L325.00,474.00 L327.00,476.00 L335.00,505.00 L343.00,513.00 L343.00,527.00 L354.00,527.00 L355.00,511.00 L362.00,508.00 L370.00,477.00 L373.00,474.00 L379.00,474.00 L383.00,471.00 L383.00,450.00 L357.00,449.00 L355.00,447.00 L356.00,416.00 L354.00,413.00 L354.00,408.00 L346.00,398.00 L324.00,385.00 L308.00,380.00 L232.00,379.00 L230.00,381.00 L226.00,380.00 L170.00,407.00 L166.00,411.00 L159.00,413.00 L155.00,418.00 L157.00,433.00 L192.00,433.00 L197.00,427.00 L238.00,426.00 L242.00,429.00 L242.00,464.00 L240.00,466.00 L200.00,467.00 L191.00,458.00 L154.00,459.00 L154.00,471.00 L158.00,477.00 L218.00,512.00 L222.00,517.00 L222.00,568.00 L220.00,575.00 L220.00,587.00 L226.00,594.00 L234.00,593.00 L240.00,596.00 L240.00,649.00 L238.00,651.00 L227.00,650.00 L215.00,646.00 L194.00,636.00 L174.00,623.00 L154.00,604.00 L154.00,602.00 L139.00,583.00 L129.00,565.00 L118.00,533.00 L119.00,530.00 L117.00,518.00 L115.00,515.00 L115.00,481.00 L117.00,478.00 L123.00,448.00 L135.00,421.00 L149.00,399.00 L168.00,379.00 L170.00,379.00 L174.00,374.00 L176.00,374.00 L196.00,359.00 L199.00,359.00 L221.00,349.00 L239.00,345.00 L241.00,343.00 L246.00,344.00 Z M873.00,376.00 L872.00,450.00 L895.00,451.00 L898.00,449.00 L904.00,449.00 L911.00,443.00 L914.00,435.00 L913.00,431.00 L915.00,427.00 L915.00,400.00 L913.00,396.00 L913.00,387.00 L907.00,379.00 L900.00,376.00 Z M549.00,374.00 L534.00,375.00 L530.00,377.00 L524.00,384.00 L521.00,394.00 L522.00,437.00 L528.00,447.00 L538.00,452.00 L547.00,452.00 L553.00,450.00 L562.00,441.00 L564.00,436.00 L564.00,389.00 L561.00,382.00 L556.00,377.00 Z M796.00,472.00 L788.00,478.00 L784.00,487.00 L784.00,532.00 L788.00,541.00 L794.00,546.00 L800.00,548.00 L811.00,548.00 L819.00,544.00 L826.00,534.00 L827.00,488.00 L823.00,478.00 L815.00,472.00 Z M580.00,567.00 L578.00,597.00 L579.00,641.00 L606.00,642.00 L614.00,638.00 L618.00,633.00 L620.00,627.00 L619.00,612.00 L617.00,608.00 L611.00,603.00 L615.00,600.00 L618.00,594.00 L617.00,590.00 L619.00,586.00 L617.00,583.00 L617.00,576.00 L609.00,568.00 Z M575.00,376.00 L573.00,378.00 L575.00,381.00 L574.00,384.00 L576.00,395.00 L580.00,407.00 L579.00,410.00 L582.00,417.00 L581.00,419.00 L583.00,422.00 L582.00,425.00 L587.00,450.00 L600.00,450.00 L602.00,441.00 L601.00,437.00 L603.00,434.00 L607.00,413.00 L606.00,409.00 L609.00,407.00 L613.00,415.00 L612.00,417.00 L614.00,420.00 L613.00,424.00 L616.00,431.00 L615.00,434.00 L618.00,450.00 L629.00,451.00 L632.00,448.00 L631.00,444.00 L634.00,437.00 L633.00,434.00 L635.00,431.00 L634.00,429.00 L636.00,426.00 L638.00,416.00 L637.00,413.00 L640.00,406.00 L640.00,398.00 L642.00,395.00 L641.00,392.00 L643.00,389.00 L645.00,376.00 L633.00,376.00 L629.00,399.00 L630.00,403.00 L627.00,412.00 L628.00,416.00 L626.00,419.00 L627.00,422.00 L625.00,424.00 L620.00,414.00 L621.00,411.00 L614.00,377.00 L605.00,376.00 L603.00,378.00 L603.00,387.00 L601.00,390.00 L598.00,405.00 L599.00,409.00 L596.00,416.00 L597.00,420.00 L594.00,422.00 L590.00,416.00 L591.00,413.00 L589.00,410.00 L590.00,407.00 L587.00,398.00 L588.00,394.00 L585.00,385.00 L585.00,376.00 Z M531.00,472.00 L529.00,478.00 L529.00,544.00 L531.00,546.00 L541.00,545.00 L541.00,520.00 L543.00,518.00 L547.00,518.00 L550.00,521.00 L558.00,546.00 L570.00,546.00 L571.00,544.00 L560.00,516.00 L566.00,511.00 L570.00,499.00 L570.00,490.00 L568.00,487.00 L569.00,484.00 L566.00,478.00 L556.00,472.00 Z M699.00,375.00 L690.00,376.00 L690.00,416.00 L688.00,418.00 L684.00,412.00 L670.00,376.00 L657.00,376.00 L657.00,449.00 L659.00,451.00 L668.00,450.00 L668.00,411.00 L670.00,409.00 L673.00,412.00 L688.00,450.00 L699.00,451.00 L701.00,449.00 L701.00,384.00 Z M841.00,472.00 L840.00,523.00 L842.00,527.00 L842.00,546.00 L852.00,546.00 L852.00,525.00 L850.00,519.00 L850.00,502.00 L852.00,500.00 L855.00,504.00 L871.00,545.00 L884.00,547.00 L885.00,472.00 L875.00,473.00 L875.00,516.00 L873.00,518.00 L870.00,514.00 L855.00,475.00 L851.00,472.00 Z M506.00,472.00 L477.00,472.00 L478.00,546.00 L488.00,546.00 L488.00,520.00 L491.00,517.00 L507.00,517.00 L511.00,515.00 L517.00,507.00 L519.00,499.00 L519.00,491.00 L517.00,488.00 L518.00,484.00 L515.00,478.00 Z M858.00,375.00 L852.00,377.00 L848.00,376.00 L849.00,419.00 L847.00,421.00 L844.00,417.00 L828.00,377.00 L815.00,376.00 L817.00,451.00 L824.00,451.00 L826.00,448.00 L826.00,412.00 L828.00,410.00 L832.00,415.00 L845.00,449.00 L847.00,451.00 L857.00,450.00 Z M536.00,569.00 L534.00,571.00 L526.00,605.00 L527.00,608.00 L524.00,614.00 L525.00,617.00 L518.00,641.00 L529.00,642.00 L531.00,638.00 L530.00,636.00 L535.00,627.00 L551.00,627.00 L556.00,639.00 L555.00,642.00 L567.00,642.00 L555.00,586.00 L551.00,576.00 L551.00,570.00 L540.00,568.00 Z M726.00,470.00 L723.00,472.00 L719.00,471.00 L713.00,474.00 L708.00,479.00 L705.00,489.00 L707.00,493.00 L706.00,497.00 L713.00,507.00 L728.00,516.00 L734.00,522.00 L737.00,529.00 L730.00,537.00 L721.00,536.00 L714.00,525.00 L711.00,527.00 L707.00,526.00 L705.00,528.00 L705.00,532.00 L711.00,543.00 L718.00,547.00 L729.00,548.00 L740.00,544.00 L745.00,539.00 L748.00,524.00 L745.00,516.00 L737.00,508.00 L726.00,502.00 L718.00,494.00 L718.00,486.00 L723.00,481.00 L729.00,481.00 L734.00,486.00 L735.00,492.00 L742.00,490.00 L746.00,491.00 L746.00,484.00 L741.00,476.00 L734.00,471.00 L729.00,472.00 Z M728.00,374.00 L721.00,377.00 L717.00,381.00 L715.00,385.00 L714.00,399.00 L721.00,410.00 L723.00,410.00 L742.00,424.00 L744.00,433.00 L743.00,436.00 L735.00,442.00 L733.00,442.00 L726.00,436.00 L723.00,429.00 L716.00,429.00 L713.00,433.00 L713.00,436.00 L716.00,443.00 L721.00,448.00 L728.00,451.00 L744.00,450.00 L752.00,444.00 L756.00,433.00 L756.00,427.00 L754.00,421.00 L747.00,413.00 L735.00,406.00 L727.00,398.00 L726.00,390.00 L730.00,385.00 L736.00,384.00 L742.00,389.00 L743.00,395.00 L749.00,395.00 L755.00,392.00 L753.00,384.00 L746.00,376.00 L741.00,374.00 Z M643.00,566.00 L635.00,570.00 L631.00,575.00 L629.00,580.00 L629.00,590.00 L633.00,598.00 L657.00,615.00 L659.00,620.00 L659.00,627.00 L654.00,632.00 L646.00,632.00 L642.00,629.00 L638.00,620.00 L631.00,621.00 L628.00,624.00 L631.00,634.00 L637.00,640.00 L647.00,643.00 L654.00,643.00 L664.00,639.00 L668.00,635.00 L671.00,628.00 L671.00,617.00 L662.00,604.00 L645.00,594.00 L640.00,587.00 L641.00,582.00 L647.00,576.00 L654.00,577.00 L661.00,587.00 L668.00,586.00 L670.00,582.00 L666.00,572.00 L659.00,567.00 Z M642.00,471.00 L630.00,481.00 L628.00,486.00 L628.00,533.00 L631.00,540.00 L636.00,545.00 L645.00,548.00 L654.00,548.00 L667.00,539.00 L669.00,534.00 L668.00,525.00 L658.00,525.00 L656.00,533.00 L649.00,538.00 L645.00,537.00 L640.00,532.00 L638.00,492.00 L645.00,482.00 L654.00,483.00 L657.00,487.00 L658.00,494.00 L667.00,494.00 L669.00,492.00 L669.00,486.00 L662.00,474.00 L655.00,471.00 Z M582.00,472.00 L581.00,545.00 L587.00,547.00 L614.00,547.00 L616.00,538.00 L615.00,536.00 L594.00,536.00 L592.00,534.00 L592.00,516.00 L598.00,513.00 L611.00,512.00 L611.00,506.00 L609.00,504.00 L595.00,504.00 L593.00,502.00 L592.00,485.00 L594.00,483.00 L615.00,483.00 L616.00,473.00 Z M769.00,375.00 L767.00,404.00 L768.00,450.00 L800.00,451.00 L800.00,440.00 L781.00,440.00 L779.00,438.00 L778.00,420.00 L781.00,417.00 L797.00,417.00 L798.00,414.00 L796.00,409.00 L781.00,409.00 L779.00,407.00 L779.00,388.00 L781.00,386.00 L801.00,386.00 L802.00,376.00 Z M475.00,375.00 L473.00,385.00 L485.00,386.00 L487.00,388.00 L487.00,450.00 L497.00,451.00 L499.00,449.00 L498.00,389.00 L501.00,386.00 L513.00,386.00 L514.00,377.00 L512.00,375.00 Z M478.00,567.00 L478.00,642.00 L511.00,641.00 L510.00,632.00 L491.00,632.00 L489.00,630.00 L489.00,568.00 Z M751.00,597.00 L749.00,601.00 L750.00,641.00 L770.00,640.00 L773.00,638.00 L776.00,628.00 L776.00,611.00 L774.00,609.00 L775.00,606.00 L773.00,601.00 L763.00,597.00 Z M540.00,385.00 L546.00,385.00 L551.00,389.00 L554.00,406.00 L554.00,426.00 L552.00,429.00 L552.00,434.00 L545.00,441.00 L537.00,440.00 L532.00,431.00 L532.00,397.00 L535.00,389.00 Z M805.00,480.00 L811.00,483.00 L816.00,491.00 L816.00,527.00 L814.00,532.00 L808.00,537.00 L800.00,536.00 L796.00,530.00 L796.00,489.00 L798.00,484.00 Z M888.00,385.00 L896.00,386.00 L902.00,393.00 L903.00,432.00 L896.00,440.00 L886.00,440.00 L883.00,434.00 L883.00,388.00 Z M321.00,564.00 L329.00,559.00 L350.00,551.00 L373.00,561.00 L376.00,565.00 L364.00,573.00 L348.00,579.00 L323.00,567.00 Z M692.00,471.00 L682.00,472.00 L683.00,493.00 L681.00,496.00 L683.00,499.00 L682.00,546.00 L693.00,547.00 L694.00,472.00 Z M386.00,602.00 L385.00,608.00 L380.00,613.00 L350.00,628.00 L334.00,622.00 L313.00,610.00 L313.00,603.00 L317.00,601.00 L344.00,615.00 L353.00,615.00 L382.00,600.00 Z M386.00,577.00 L386.00,584.00 L383.00,587.00 L351.00,603.00 L347.00,603.00 L313.00,585.00 L313.00,578.00 L316.00,576.00 L350.00,592.00 L382.00,575.00 Z M760.00,473.00 L760.00,545.00 L770.00,547.00 L771.00,474.00 Z M499.00,481.00 L506.00,487.00 L508.00,497.00 L503.00,506.00 L498.00,509.00 L491.00,509.00 L488.00,506.00 L488.00,484.00 L490.00,482.00 Z M720.00,597.00 L719.00,601.00 L726.00,604.00 L726.00,640.00 L733.00,640.00 L734.00,604.00 L736.00,602.00 L742.00,602.00 L743.00,598.00 Z M697.00,597.00 L696.00,640.00 L717.00,640.00 L717.00,635.00 L706.00,635.00 L704.00,633.00 L704.00,598.00 Z M543.00,482.00 L550.00,481.00 L554.00,483.00 L559.00,490.00 L559.00,499.00 L553.00,507.00 L543.00,507.00 L541.00,505.00 L541.00,484.00 Z M592.00,609.00 L599.00,608.00 L607.00,614.00 L608.00,626.00 L605.00,631.00 L598.00,633.00 L592.00,632.00 L590.00,630.00 L590.00,611.00 Z M759.00,603.00 L763.00,603.00 L768.00,607.00 L769.00,625.00 L768.00,632.00 L765.00,635.00 L759.00,635.00 L757.00,633.00 L757.00,605.00 Z M600.00,576.00 L606.00,582.00 L606.00,594.00 L601.00,599.00 L592.00,599.00 L590.00,597.00 L590.00,579.00 L592.00,577.00 Z M542.00,585.00 L544.00,587.00 L543.00,588.00 L545.00,591.00 L550.00,614.00 L546.00,618.00 L538.00,617.00 L535.00,613.00 L541.00,590.00 L540.00,587.00 Z"/>
</svg>
